<mxfile host="app.diagrams.net" agent="Mozilla/5.0 (Macintosh; Intel Mac OS X 10_15_7) AppleWebKit/537.36 (KHTML, like Gecko) Chrome/141.0.0.0 Safari/537.36" version="28.2.7">
  <diagram name="Page-1" id="0DkifandYqw65oh0OHo_">
    <mxGraphModel dx="2359" dy="2851" grid="1" gridSize="10" guides="1" tooltips="1" connect="1" arrows="1" fold="1" page="1" pageScale="1" pageWidth="850" pageHeight="1100" math="0" shadow="0">
      <root>
        <mxCell id="0" />
        <mxCell id="1" parent="0" />
        <mxCell id="Wc-dx1am5b-lL4WBsI26-7" style="edgeStyle=orthogonalEdgeStyle;rounded=0;orthogonalLoop=1;jettySize=auto;html=1;endArrow=none;endFill=0;startArrow=none;startFill=0;entryX=1;entryY=0.5;entryDx=0;entryDy=0;entryPerimeter=0;" edge="1" parent="1" source="Wc-dx1am5b-lL4WBsI26-31" target="Wc-dx1am5b-lL4WBsI26-8">
          <mxGeometry relative="1" as="geometry">
            <mxPoint x="290" y="170" as="targetPoint" />
            <Array as="points" />
          </mxGeometry>
        </mxCell>
        <mxCell id="Wc-dx1am5b-lL4WBsI26-8" value="Timestream" style="shape=cylinder3;whiteSpace=wrap;html=1;boundedLbl=1;backgroundOutline=1;size=15;" vertex="1" parent="1">
          <mxGeometry x="140" y="40" width="130" height="180" as="geometry" />
        </mxCell>
        <mxCell id="Wc-dx1am5b-lL4WBsI26-12" style="edgeStyle=orthogonalEdgeStyle;rounded=0;orthogonalLoop=1;jettySize=auto;html=1;exitX=1;exitY=0.5;exitDx=0;exitDy=0;" edge="1" parent="1" source="Wc-dx1am5b-lL4WBsI26-10">
          <mxGeometry relative="1" as="geometry">
            <mxPoint x="320" y="470" as="sourcePoint" />
            <mxPoint x="550" y="300" as="targetPoint" />
            <Array as="points">
              <mxPoint x="400" y="470" />
              <mxPoint x="400" y="300" />
            </Array>
          </mxGeometry>
        </mxCell>
        <mxCell id="Wc-dx1am5b-lL4WBsI26-13" value="" style="group" vertex="1" connectable="0" parent="1">
          <mxGeometry x="490" y="210" width="220" height="260" as="geometry" />
        </mxCell>
        <mxCell id="Wc-dx1am5b-lL4WBsI26-5" value="Analyze Server" style="rounded=0;whiteSpace=wrap;html=1;" vertex="1" parent="Wc-dx1am5b-lL4WBsI26-13">
          <mxGeometry width="220" height="180" as="geometry" />
        </mxCell>
        <mxCell id="Wc-dx1am5b-lL4WBsI26-9" value="" style="image;html=1;image=img/lib/clip_art/computers/Server_Rack_128x128.png" vertex="1" parent="Wc-dx1am5b-lL4WBsI26-13">
          <mxGeometry x="10" y="140" width="80" height="80" as="geometry" />
        </mxCell>
        <mxCell id="Wc-dx1am5b-lL4WBsI26-34" value="AnalyzeDB&lt;div&gt;&lt;br&gt;&lt;/div&gt;" style="shape=cylinder3;whiteSpace=wrap;html=1;boundedLbl=1;backgroundOutline=1;size=15;" vertex="1" parent="Wc-dx1am5b-lL4WBsI26-13">
          <mxGeometry x="100" y="170" width="70" height="90" as="geometry" />
        </mxCell>
        <mxCell id="Wc-dx1am5b-lL4WBsI26-14" value="" style="group" vertex="1" connectable="0" parent="1">
          <mxGeometry x="140" y="380" width="215" height="200" as="geometry" />
        </mxCell>
        <mxCell id="Wc-dx1am5b-lL4WBsI26-10" value="Analytics Engine Server" style="rounded=0;whiteSpace=wrap;html=1;" vertex="1" parent="Wc-dx1am5b-lL4WBsI26-14">
          <mxGeometry width="215" height="180" as="geometry" />
        </mxCell>
        <mxCell id="Wc-dx1am5b-lL4WBsI26-11" value="" style="image;html=1;image=img/lib/clip_art/computers/Server_Rack_128x128.png" vertex="1" parent="Wc-dx1am5b-lL4WBsI26-14">
          <mxGeometry x="20" y="120" width="80" height="80" as="geometry" />
        </mxCell>
        <mxCell id="Wc-dx1am5b-lL4WBsI26-18" style="edgeStyle=orthogonalEdgeStyle;rounded=0;orthogonalLoop=1;jettySize=auto;html=1;entryX=0;entryY=0.5;entryDx=0;entryDy=0;" edge="1" parent="1" source="Wc-dx1am5b-lL4WBsI26-19" target="Wc-dx1am5b-lL4WBsI26-10">
          <mxGeometry relative="1" as="geometry">
            <mxPoint x="6.5" y="470" as="sourcePoint" />
          </mxGeometry>
        </mxCell>
        <mxCell id="Wc-dx1am5b-lL4WBsI26-19" value="Bucket B" style="sketch=0;outlineConnect=0;fontColor=#232F3E;gradientColor=none;strokeColor=#ffffff;fillColor=#232F3E;dashed=0;verticalLabelPosition=middle;verticalAlign=bottom;align=center;html=1;whiteSpace=wrap;fontSize=10;fontStyle=1;spacing=3;shape=mxgraph.aws4.productIcon;prIcon=mxgraph.aws4.s3;" vertex="1" parent="1">
          <mxGeometry x="-80" y="420" width="80" height="100" as="geometry" />
        </mxCell>
        <mxCell id="Wc-dx1am5b-lL4WBsI26-23" style="edgeStyle=orthogonalEdgeStyle;rounded=0;orthogonalLoop=1;jettySize=auto;html=1;entryX=0;entryY=0.5;entryDx=0;entryDy=0;" edge="1" parent="1" source="Wc-dx1am5b-lL4WBsI26-20" target="Wc-dx1am5b-lL4WBsI26-10">
          <mxGeometry relative="1" as="geometry" />
        </mxCell>
        <mxCell id="Wc-dx1am5b-lL4WBsI26-20" value="Bucket C" style="sketch=0;outlineConnect=0;fontColor=#232F3E;gradientColor=none;strokeColor=#ffffff;fillColor=#232F3E;dashed=0;verticalLabelPosition=middle;verticalAlign=bottom;align=center;html=1;whiteSpace=wrap;fontSize=10;fontStyle=1;spacing=3;shape=mxgraph.aws4.productIcon;prIcon=mxgraph.aws4.s3;" vertex="1" parent="1">
          <mxGeometry x="-80" y="540" width="80" height="100" as="geometry" />
        </mxCell>
        <mxCell id="Wc-dx1am5b-lL4WBsI26-24" style="edgeStyle=orthogonalEdgeStyle;rounded=0;orthogonalLoop=1;jettySize=auto;html=1;entryX=0;entryY=0.5;entryDx=0;entryDy=0;" edge="1" parent="1" source="Wc-dx1am5b-lL4WBsI26-22" target="Wc-dx1am5b-lL4WBsI26-10">
          <mxGeometry relative="1" as="geometry" />
        </mxCell>
        <mxCell id="Wc-dx1am5b-lL4WBsI26-22" value="Bucket A" style="sketch=0;outlineConnect=0;fontColor=#232F3E;gradientColor=none;strokeColor=#ffffff;fillColor=#232F3E;dashed=0;verticalLabelPosition=middle;verticalAlign=bottom;align=center;html=1;whiteSpace=wrap;fontSize=10;fontStyle=1;spacing=3;shape=mxgraph.aws4.productIcon;prIcon=mxgraph.aws4.s3;" vertex="1" parent="1">
          <mxGeometry x="-80" y="310" width="80" height="100" as="geometry" />
        </mxCell>
        <mxCell id="Wc-dx1am5b-lL4WBsI26-25" value="metrics_minute" style="sketch=0;html=1;aspect=fixed;strokeColor=none;shadow=0;fillColor=#3B8DF1;verticalAlign=top;labelPosition=center;verticalLabelPosition=bottom;shape=mxgraph.gcp2.view_list" vertex="1" parent="1">
          <mxGeometry x="20" y="10" width="40.5" height="50" as="geometry" />
        </mxCell>
        <mxCell id="Wc-dx1am5b-lL4WBsI26-26" value="metrics_hourly&lt;div&gt;&lt;br&gt;&lt;/div&gt;" style="sketch=0;html=1;aspect=fixed;strokeColor=none;shadow=0;fillColor=#3B8DF1;verticalAlign=top;labelPosition=center;verticalLabelPosition=bottom;shape=mxgraph.gcp2.view_list" vertex="1" parent="1">
          <mxGeometry x="24.05" y="100" width="36.45" height="45" as="geometry" />
        </mxCell>
        <mxCell id="Wc-dx1am5b-lL4WBsI26-27" value="organizations" style="sketch=0;html=1;aspect=fixed;strokeColor=none;shadow=0;fillColor=#3B8DF1;verticalAlign=top;labelPosition=center;verticalLabelPosition=bottom;shape=mxgraph.gcp2.view_list" vertex="1" parent="1">
          <mxGeometry x="650" y="470" width="40.5" height="50" as="geometry" />
        </mxCell>
        <mxCell id="Wc-dx1am5b-lL4WBsI26-28" value="predictive_maintenance_diagnostics" style="sketch=0;html=1;aspect=fixed;strokeColor=none;shadow=0;fillColor=#3B8DF1;verticalAlign=top;labelPosition=center;verticalLabelPosition=bottom;shape=mxgraph.gcp2.view_list" vertex="1" parent="1">
          <mxGeometry x="-140" y="80" width="40.5" height="50" as="geometry" />
        </mxCell>
        <mxCell id="Wc-dx1am5b-lL4WBsI26-30" value="" style="edgeStyle=orthogonalEdgeStyle;rounded=0;orthogonalLoop=1;jettySize=auto;html=1;endArrow=none;endFill=0;startArrow=classic;startFill=0;entryX=1;entryY=0.5;entryDx=0;entryDy=0;entryPerimeter=0;" edge="1" parent="1" source="Wc-dx1am5b-lL4WBsI26-5" target="Wc-dx1am5b-lL4WBsI26-31">
          <mxGeometry relative="1" as="geometry">
            <mxPoint x="490" y="300" as="sourcePoint" />
            <mxPoint x="270" y="150" as="targetPoint" />
            <Array as="points">
              <mxPoint x="400" y="300" />
            </Array>
          </mxGeometry>
        </mxCell>
        <mxCell id="Wc-dx1am5b-lL4WBsI26-33" style="edgeStyle=orthogonalEdgeStyle;rounded=0;orthogonalLoop=1;jettySize=auto;html=1;" edge="1" parent="1" source="Wc-dx1am5b-lL4WBsI26-31" target="Wc-dx1am5b-lL4WBsI26-32">
          <mxGeometry relative="1" as="geometry" />
        </mxCell>
        <mxCell id="Wc-dx1am5b-lL4WBsI26-31" value="Query Builder" style="rhombus;whiteSpace=wrap;html=1;" vertex="1" parent="1">
          <mxGeometry x="365" y="90" width="80" height="80" as="geometry" />
        </mxCell>
        <mxCell id="Wc-dx1am5b-lL4WBsI26-32" value="UDL" style="shape=cylinder3;whiteSpace=wrap;html=1;boundedLbl=1;backgroundOutline=1;size=15;" vertex="1" parent="1">
          <mxGeometry x="340" y="-290" width="130" height="180" as="geometry" />
        </mxCell>
        <mxCell id="Wc-dx1am5b-lL4WBsI26-35" value="metrics_daily" style="sketch=0;html=1;aspect=fixed;strokeColor=none;shadow=0;fillColor=#3B8DF1;verticalAlign=top;labelPosition=center;verticalLabelPosition=bottom;shape=mxgraph.gcp2.view_list" vertex="1" parent="1">
          <mxGeometry x="30" y="200" width="40.5" height="50" as="geometry" />
        </mxCell>
        <mxCell id="Wc-dx1am5b-lL4WBsI26-38" value="Analyze UI" style="whiteSpace=wrap;html=1;aspect=fixed;" vertex="1" parent="1">
          <mxGeometry x="900" y="235" width="170" height="170" as="geometry" />
        </mxCell>
        <mxCell id="Wc-dx1am5b-lL4WBsI26-39" style="edgeStyle=orthogonalEdgeStyle;rounded=0;orthogonalLoop=1;jettySize=auto;html=1;entryX=0.995;entryY=0.622;entryDx=0;entryDy=0;entryPerimeter=0;" edge="1" parent="1" source="Wc-dx1am5b-lL4WBsI26-38" target="Wc-dx1am5b-lL4WBsI26-5">
          <mxGeometry relative="1" as="geometry" />
        </mxCell>
        <mxCell id="Wc-dx1am5b-lL4WBsI26-48" value="metrics_minute" style="sketch=0;html=1;aspect=fixed;strokeColor=none;shadow=0;fillColor=#3B8DF1;verticalAlign=top;labelPosition=center;verticalLabelPosition=bottom;shape=mxgraph.gcp2.view_list" vertex="1" parent="1">
          <mxGeometry x="210.01" y="-310" width="40.5" height="50" as="geometry" />
        </mxCell>
        <mxCell id="Wc-dx1am5b-lL4WBsI26-49" value="metrics_hourly&lt;div&gt;&lt;br&gt;&lt;/div&gt;" style="sketch=0;html=1;aspect=fixed;strokeColor=none;shadow=0;fillColor=#3B8DF1;verticalAlign=top;labelPosition=center;verticalLabelPosition=bottom;shape=mxgraph.gcp2.view_list" vertex="1" parent="1">
          <mxGeometry x="209.99999999999997" y="-222.5" width="36.45" height="45" as="geometry" />
        </mxCell>
        <mxCell id="Wc-dx1am5b-lL4WBsI26-50" value="metrics_daily" style="sketch=0;html=1;aspect=fixed;strokeColor=none;shadow=0;fillColor=#3B8DF1;verticalAlign=top;labelPosition=center;verticalLabelPosition=bottom;shape=mxgraph.gcp2.view_list" vertex="1" parent="1">
          <mxGeometry x="205.95" y="-130" width="40.5" height="50" as="geometry" />
        </mxCell>
        <mxCell id="Wc-dx1am5b-lL4WBsI26-51" value="predictive_maintenance_diagnostics" style="sketch=0;html=1;aspect=fixed;strokeColor=none;shadow=0;fillColor=#3B8DF1;verticalAlign=top;labelPosition=center;verticalLabelPosition=bottom;shape=mxgraph.gcp2.view_list" vertex="1" parent="1">
          <mxGeometry x="50" y="-227.5" width="40.5" height="50" as="geometry" />
        </mxCell>
      </root>
    </mxGraphModel>
  </diagram>
</mxfile>
